<?xml version="1.0" standalone="no"?>
<!DOCTYPE svg PUBLIC "-//W3C//DTD SVG 20010904//EN"
 "http://www.w3.org/TR/2001/REC-SVG-20010904/DTD/svg10.dtd">
<svg version="1.0" xmlns="http://www.w3.org/2000/svg"
 width="64.000000pt" height="64.000000pt" viewBox="0 0 64.000000 64.000000"
 preserveAspectRatio="xMidYMid meet">

<g transform="translate(0.000000,64.000000) scale(0.100000,-0.100000)"
fill="#000000" stroke="none">
<path d="M180 585 c-10 -12 -10 -19 -2 -27 7 -7 12 -18 12 -26 0 -8 11 -25 25
-38 16 -15 25 -18 25 -10 0 8 -10 20 -21 28 -19 12 -20 17 -9 35 13 21 8 53
-8 53 -5 0 -15 -7 -22 -15z"/>
<path d="M425 590 c-3 -5 -3 -25 0 -43 5 -26 3 -36 -9 -40 -9 -4 -16 -13 -16
-21 0 -11 7 -9 25 8 14 13 25 30 25 38 0 8 5 19 12 26 8 8 8 15 -2 27 -14 17
-26 19 -35 5z"/>
<path d="M305 523 c7 -39 12 -50 19 -42 2 2 7 21 11 42 7 34 5 37 -15 37 -20
0 -22 -3 -15 -37z"/>
<path d="M192 439 c-30 -12 -75 -41 -105 -70 l-52 -49 52 -49 c67 -63 139 -91
233 -91 94 0 166 28 233 91 l52 49 -52 49 c-68 64 -139 91 -236 90 -47 0 -90
-7 -125 -20z m178 -24 c32 -17 60 -61 60 -95 0 -53 -57 -110 -110 -110 -34 0
-78 28 -95 60 -19 37 -19 63 0 100 28 54 90 73 145 45z"/>
<path d="M282 405 c-21 -9 -38 -27 -48 -50 -20 -49 1 -100 51 -120 31 -14 39
-14 70 0 78 32 78 138 1 170 -41 18 -33 18 -74 0z m76 -47 c7 -7 12 -24 12
-38 0 -14 -5 -31 -12 -38 -15 -15 -61 -15 -76 0 -15 15 -15 61 0 76 7 7 24 12
38 12 14 0 31 -5 38 -12z"/>
<path d="M290 345 c-15 -18 -10 -45 13 -59 34 -22 73 27 47 59 -16 19 -44 19
-60 0z"/>
<path d="M213 144 c-13 -12 -23 -28 -23 -36 0 -7 -5 -19 -12 -26 -9 -9 -9 -16
4 -28 9 -9 21 -13 27 -10 15 10 14 39 -1 55 -11 10 -8 16 11 30 13 10 22 22
20 27 -2 5 -14 0 -26 -12z"/>
<path d="M400 154 c0 -8 7 -17 16 -21 12 -4 14 -14 9 -43 -7 -44 8 -61 33 -36
13 12 14 19 4 28 -7 7 -12 18 -12 26 0 8 -11 25 -25 38 -18 17 -25 19 -25 8z"/>
<path d="M310 141 c0 -11 -4 -22 -10 -26 -15 -9 1 -35 22 -35 18 0 20 5 14 31
-3 17 -6 35 -6 40 0 5 -4 9 -10 9 -5 0 -10 -9 -10 -19z"/>
</g>
</svg>
